<?xml version="1.0" encoding="UTF-8" standalone="no"?>
<!-- Created with Inkscape (http://www.inkscape.org/) -->

<svg
   width="30.883194mm"
   height="28.694454mm"
   viewBox="0 0 30.883193 28.694454"
   version="1.1"
   id="svg1"
   xml:space="preserve"
   inkscape:version="1.3 (0e150ed6c4, 2023-07-21)"
   sodipodi:docname="logo.svg"
   xmlns:inkscape="http://www.inkscape.org/namespaces/inkscape"
   xmlns:sodipodi="http://sodipodi.sourceforge.net/DTD/sodipodi-0.dtd"
   xmlns:xlink="http://www.w3.org/1999/xlink"
   xmlns="http://www.w3.org/2000/svg"
   xmlns:svg="http://www.w3.org/2000/svg"><sodipodi:namedview
     id="namedview1"
     pagecolor="#505050"
     bordercolor="#eeeeee"
     borderopacity="1"
     inkscape:showpageshadow="0"
     inkscape:pageopacity="0"
     inkscape:pagecheckerboard="0"
     inkscape:deskcolor="#505050"
     inkscape:document-units="mm"
     inkscape:zoom="1.5037598"
     inkscape:cx="36.24249"
     inkscape:cy="226.43244"
     inkscape:window-width="2560"
     inkscape:window-height="1377"
     inkscape:window-x="3832"
     inkscape:window-y="384"
     inkscape:window-maximized="1"
     inkscape:current-layer="layer1" /><defs
     id="defs1"><linearGradient
       id="linearGradient3"
       inkscape:collect="always"><stop
         style="stop-color:#d9d9d9;stop-opacity:1;"
         offset="0"
         id="stop3" /><stop
         style="stop-color:#d9d9d9;stop-opacity:0;"
         offset="1"
         id="stop4" /></linearGradient><linearGradient
       inkscape:collect="always"
       xlink:href="#linearGradient3"
       id="linearGradient4"
       x1="25.501768"
       y1="69.765366"
       x2="56.384964"
       y2="69.765366"
       gradientUnits="userSpaceOnUse" /></defs><g
     inkscape:label="Layer 1"
     inkscape:groupmode="layer"
     id="layer1"
     transform="translate(-25.501768,-55.418136)"><path
       d="m 38.877223,55.418136 v 3.120051 h -5.168706 v 1.879342 h -3.038043 v -1.879342 h -5.168706 v -3.120051 z m -4.001535,6.220362 h -5.372385 v 6.607893 c 1.01889,-1.809887 3.16998,-3.320197 5.372385,-3.429805 z m -4.649944,12.519009 c -0.03361,0.544543 0.117665,1.066709 0.420488,1.451822 0.302824,0.385118 0.73241,0.601236 1.194192,0.601236 0.961801,0 1.798093,-0.919088 1.868093,-2.053058 0.07,-1.133974 -0.652877,-2.053118 -1.614679,-2.053118 -0.961585,0 -1.798095,0.919144 -1.868094,2.053118 z m 24.268395,-3.19828 c -2.261944,-0.270221 -5.659193,1.016885 -10.31867,4.689416 -3.796819,2.99267 -4.894155,3.763964 -9.688784,2.441707 l -5.761551,-1.588923 c -0.382356,-7.54217 3.791971,-11.71341 9.207282,-10.192805 z m -20.911186,8.187769 c 0.130848,0.797222 0.488582,1.594668 0.952052,2.39189 L 32.853104,81.073582 C 31.29862,80.643703 30.580482,79.498029 30.197853,78.201758 Z M 43.650716,84.11259 37.437025,82.356751 C 36.150937,81.993396 35.282067,80.777038 34.924388,79.54308 l 1.105016,0.272634 c 2.493299,0.615072 4.197315,-0.02902 5.61959,-0.752402 0.149587,3.027374 1.062691,4.071699 2.001722,5.049278 z m 3.221459,-8.898891 c 0.699671,1.755902 -0.142995,3.191025 -0.512823,3.552399 -0.503453,0.492306 -1.942997,1.156806 -1.520166,-2.063852 z m 3.847262,-2.224695 c 1.804251,5.25758 -1.20138,9.13374 -2.87756,10.25652 -1.321879,0.885287 -4.760148,1.42196 -5.03568,-4.989327 0.228957,-0.196607 0.459384,-0.3886 0.690464,-0.578401 0.236639,3.584909 2.652692,2.918888 3.441701,2.251295 0.781164,-0.661011 2.135782,-2.793643 0.934128,-5.366281 0.934184,-0.570531 1.883239,-1.095114 2.846947,-1.573806 z m 1.032075,-0.57244 c 5.286152,-1.316574 6.937601,2.975745 0.187664,6.9686 0.710947,-2.447454 0.727072,-4.783043 -0.187664,-6.9686 z"
       style="fill:url(#linearGradient4);fill-rule:evenodd;stroke:none;stroke-width:0.0553489"
       id="path853" /></g></svg>
